<svg viewBox="215.78346000000002 0.8357230142566191 63.00654000000001 88.58663951120162" xmlns="http://www.w3.org/2000/svg" data-name="Capa 1" id="Capa_1" style="max-height: 500px" width="63.00654000000001" height="88.58663951120162"><defs><style>.cls-1{fill:#00094b;}.cls-2{fill:#24ba89;}</style></defs><path d="M98.07,88.45H69.26q0,10.26,2.79,13.69a8.67,8.67,0,0,0,7,3.43q7.05,0,8.91-9.44l9.64,1.26q-3.78,16.13-18.87,16.12-9.24,0-14.74-6.58t-5.5-19.28q0-13.07,5.55-20.2a17.86,17.86,0,0,1,14.83-7.13,16.94,16.94,0,0,1,11,3.57,19,19,0,0,1,6.26,9.36,55.27,55.27,0,0,1,2,15.2M87.32,81.37Q87.32,68,78.54,68q-8.22,0-9,13.42Z" class="cls-1"/><path d="M109.28,48.32l9.49-.91V61.53h9.74V70h-9.74V92.33a63.94,63.94,0,0,0,.3,7.85,4.91,4.91,0,0,0,1.82,3.16q1.52,1.23,5,1.23a28.39,28.39,0,0,0,4.24-.35v8.38a37.39,37.39,0,0,1-7.87.91q-5.91,0-9-2.28a10.07,10.07,0,0,1-4-6.21,60.83,60.83,0,0,1-.86-12V70h-6.61V61.53h6.91Z" class="cls-1"/><path d="M135.22,61.53h10.5V93.77q0,6.74,1.11,9c.75,1.52,2.38,2.28,4.92,2.28a6.67,6.67,0,0,0,6.58-4.06q1.88-4.08,1.87-15.07V61.53h10.5v50.72H161v-7.63q-4.08,8.89-12.94,8.89a13.24,13.24,0,0,1-7.44-1.91,10.53,10.53,0,0,1-4.15-5.42c-.84-2.35-1.26-6.41-1.26-12.21Z" class="cls-1"/><path d="M176.91,61.53h10.57l8.88,34.84,9.11-34.84H215l-16.56,53.94a51.9,51.9,0,0,1-3.33,8.69,12.07,12.07,0,0,1-4.29,4.55,13.4,13.4,0,0,1-7.17,1.73,21.9,21.9,0,0,1-5.4-.71V121.4a22.17,22.17,0,0,0,3.69.35c2.72,0,4.66-.66,5.8-2s2.37-4.39,3.69-9.21Z" class="cls-1"/><path d="M228.37,120.5a10.2,10.2,0,1,1-10.1-9.88,10,10,0,0,1,10.1,9.88m-17.85,0a7.71,7.71,0,0,0,7.75,7.89,7.59,7.59,0,0,0,7.56-7.83,7.66,7.66,0,1,0-15.31-.06m6.11,5.11h-2.3v-9.87a27.17,27.17,0,0,1,3.82-.3,5.28,5.28,0,0,1,3.38.78,2.48,2.48,0,0,1,1,2.11,2.56,2.56,0,0,1-2.06,2.35v.12c1,.3,1.46,1.08,1.76,2.41a8.15,8.15,0,0,0,.73,2.4h-2.42a7.44,7.44,0,0,1-.79-2.4c-.18-1-.79-1.51-2.06-1.51h-1.09Zm.06-5.54h1.1c1.26,0,2.29-.42,2.29-1.44s-.67-1.5-2.12-1.5a6.51,6.51,0,0,0-1.27.11Z" class="cls-1"/><path d="M245.65,87.52l.62.1c.52.1,1.06.2,1.59.27a26.64,26.64,0,1,0,2.81-53.07l-.75,0-.55-6.44a13.29,13.29,0,1,0-3.71,0l.15,0,.59,6.81a26.59,26.59,0,0,0-10.62,4.5l-6-5a7.46,7.46,0,1,0-6.37,2.19,7.36,7.36,0,0,0,3.18-.26L233,42a26.65,26.65,0,0,0,12.67,45.48m1.94-35.21a9.52,9.52,0,1,0,12.8,4.17,9.52,9.52,0,0,0-12.8-4.17M223.84,34.1a4.62,4.62,0,1,1,5.21-4,4.64,4.64,0,0,1-5.21,4M238.53,14a9,9,0,1,1,7.71,10.21A9,9,0,0,1,238.53,14M231.8,61.87a19.43,19.43,0,1,1,19.83,19,19.44,19.44,0,0,1-19.83-19" class="cls-2"/><polygon points="2.69 43.7 16.11 43.7 38.77 93.12 38.77 43.7 48.31 43.7 48.31 112.25 37.66 112.25 12.22 57.36 12.22 112.25 2.69 112.25 2.69 43.7" class="cls-1"/><path d="M3.52,128.11a7.55,7.55,0,0,1,1.86-5,6.6,6.6,0,0,1,5.18-2.31,6.33,6.33,0,0,1,3.43.89A5.67,5.67,0,0,1,16.11,124l-1.8,1.21a3.62,3.62,0,0,0-2.39-2.12,5.61,5.61,0,0,0-1.44-.2,4.12,4.12,0,0,0-2,.46A4.52,4.52,0,0,0,7,124.59a5.32,5.32,0,0,0-.87,1.71,6.52,6.52,0,0,0-.29,1.89,6,6,0,0,0,.34,2,5.52,5.52,0,0,0,1,1.71,4.55,4.55,0,0,0,1.48,1.18,4.1,4.1,0,0,0,1.88.44,4.89,4.89,0,0,0,1.48-.25,4.45,4.45,0,0,0,1.41-.78,3.78,3.78,0,0,0,1-1.36l1.91,1.07A4.41,4.41,0,0,1,15,134.09a6.7,6.7,0,0,1-2.14,1.15,7.64,7.64,0,0,1-2.37.39A6,6,0,0,1,7.69,135a7.13,7.13,0,0,1-2.21-1.72A7.89,7.89,0,0,1,4,130.83,7.58,7.58,0,0,1,3.52,128.11Z" class="cls-1"/><path d="M24.23,126.73a4.78,4.78,0,0,0-2.31.6A3.22,3.22,0,0,0,20.47,129v6.58H18.21V124.86h2.07v2.3a5.19,5.19,0,0,1,1.48-1.75,3.52,3.52,0,0,1,1.89-.73H24l.22,0Z" class="cls-1"/><path d="M30.58,135.73a5.52,5.52,0,0,1-2.28-.44,5.44,5.44,0,0,1-3.29-5,5.61,5.61,0,0,1,.7-2.79,5.32,5.32,0,0,1,2-2,5.58,5.58,0,0,1,2.91-.75,5.39,5.39,0,0,1,5.51,5.43c0,.16,0,.32,0,.46s0,.25,0,.34H27.39a3.81,3.81,0,0,0,.56,1.65,3.22,3.22,0,0,0,1.17,1.09,3.06,3.06,0,0,0,1.52.4,3.53,3.53,0,0,0,1.74-.45,2.35,2.35,0,0,0,1.1-1.2l1.93.56a4.07,4.07,0,0,1-1.07,1.41,5.66,5.66,0,0,1-1.67,1A5.92,5.92,0,0,1,30.58,135.73Zm-3.23-6.28h6.5a3.53,3.53,0,0,0-.53-1.62,3.26,3.26,0,0,0-2.72-1.47,3.08,3.08,0,0,0-1.57.4,3.22,3.22,0,0,0-1.68,2.69Z" class="cls-1"/><path d="M42.81,135.73a5.51,5.51,0,0,1-2.27-.44,5.06,5.06,0,0,1-1.76-1.22,5.65,5.65,0,0,1-1.14-1.78,5.49,5.49,0,0,1-.4-2.1,5.58,5.58,0,0,1,.68-2.75,5.11,5.11,0,0,1,1.94-2,5.74,5.74,0,0,1,3-.74,5.43,5.43,0,0,1,2.86.73,4.53,4.53,0,0,1,1.82,1.94l-2.22.68a2.64,2.64,0,0,0-1-1,2.9,2.9,0,0,0-1.47-.38,3,3,0,0,0-1.64.46A3.23,3.23,0,0,0,40,128.34a3.94,3.94,0,0,0-.42,1.85A3.83,3.83,0,0,0,40,132a3.47,3.47,0,0,0,1.17,1.29,3,3,0,0,0,1.63.47,2.93,2.93,0,0,0,1.06-.19,2.85,2.85,0,0,0,.92-.55,2,2,0,0,0,.56-.74l2.2.68a4.17,4.17,0,0,1-1,1.4,5.19,5.19,0,0,1-1.63,1A5.77,5.77,0,0,1,42.81,135.73Z" class="cls-1"/><path d="M54.19,135.73a5.52,5.52,0,0,1-2.28-.44,5.44,5.44,0,0,1-3.29-5,5.61,5.61,0,0,1,.7-2.79,5.32,5.32,0,0,1,2-2,5.58,5.58,0,0,1,2.91-.75,5.39,5.39,0,0,1,5.51,5.43c0,.16,0,.32,0,.46s0,.25,0,.34H51a3.81,3.81,0,0,0,.56,1.65,3.22,3.22,0,0,0,1.17,1.09,3.06,3.06,0,0,0,1.52.4,3.53,3.53,0,0,0,1.74-.45,2.35,2.35,0,0,0,1.1-1.2L59,133A4.07,4.07,0,0,1,58,134.39a5.66,5.66,0,0,1-1.67,1A5.92,5.92,0,0,1,54.19,135.73ZM51,129.45h6.5a3.53,3.53,0,0,0-.53-1.62,3.26,3.26,0,0,0-2.72-1.47,3.11,3.11,0,0,0-1.57.4A3.22,3.22,0,0,0,51,129.45Zm3.95-6.21-1.46-.45,1.17-2.26h2.16Z" class="cls-1"/><path d="M71.49,135.73a5.52,5.52,0,0,1-2.28-.44,5.31,5.31,0,0,1-1.74-1.2,5.37,5.37,0,0,1-1.15-1.75,5.8,5.8,0,0,1,.3-4.88,5.28,5.28,0,0,1,2-2,5.57,5.57,0,0,1,2.9-.75,5.39,5.39,0,0,1,2.93.76,5.31,5.31,0,0,1,1.9,2,5.45,5.45,0,0,1,.68,2.66c0,.16,0,.32,0,.46s0,.25,0,.34H68.31a3.8,3.8,0,0,0,.55,1.65A3.22,3.22,0,0,0,70,133.67a3.06,3.06,0,0,0,1.52.4,3.53,3.53,0,0,0,1.74-.45,2.35,2.35,0,0,0,1.1-1.2l1.93.56a4.07,4.07,0,0,1-1.07,1.41,5.53,5.53,0,0,1-1.67,1A5.88,5.88,0,0,1,71.49,135.73Zm-3.22-6.28h6.49a3.65,3.65,0,0,0-.52-1.62,3.3,3.3,0,0,0-1.16-1.07,3.19,3.19,0,0,0-1.57-.4,3.11,3.11,0,0,0-1.57.4,3.18,3.18,0,0,0-1.67,2.69Z" class="cls-1"/><path d="M88.49,135.53H86.25v-5.95a3.78,3.78,0,0,0-.5-2.19,1.67,1.67,0,0,0-1.43-.68,2.75,2.75,0,0,0-1.31.34,4.21,4.21,0,0,0-1.15.87,3.44,3.44,0,0,0-.75,1.28v6.33H78.85V124.86H80.9V127A4.17,4.17,0,0,1,82,125.78a5.14,5.14,0,0,1,1.5-.8,5.55,5.55,0,0,1,1.79-.28,3.33,3.33,0,0,1,1.6.34,2.45,2.45,0,0,1,1,.95,4.18,4.18,0,0,1,.49,1.38,8.91,8.91,0,0,1,.15,1.66Z" class="cls-1"/><path d="M96.48,135.53V120.94H98.8v14.59Z" class="cls-1"/><path d="M111.42,135.53h-2.24v-5.95a3.79,3.79,0,0,0-.49-2.19,1.68,1.68,0,0,0-1.44-.68,2.78,2.78,0,0,0-1.31.34,4.21,4.21,0,0,0-1.15.87,3.73,3.73,0,0,0-.75,1.28v6.33h-2.26V124.86h2.06V127a4,4,0,0,1,1.07-1.22,4.89,4.89,0,0,1,1.5-.8,5.49,5.49,0,0,1,1.78-.28,3.37,3.37,0,0,1,1.61.34,2.49,2.49,0,0,1,1,.95,4.19,4.19,0,0,1,.5,1.38,9.87,9.87,0,0,1,.14,1.66Z" class="cls-1"/><path d="M120,135a7.23,7.23,0,0,1-.72.3,6.41,6.41,0,0,1-1,.3,5,5,0,0,1-1.11.12,3.26,3.26,0,0,1-1.29-.25,2.19,2.19,0,0,1-1-.79,2.41,2.41,0,0,1-.36-1.37v-6.71h-1.44v-1.75h1.44v-3.53h2.26v3.53h2.35v1.75h-2.35v6a1.13,1.13,0,0,0,.36.82,1.2,1.2,0,0,0,.79.27,2.43,2.43,0,0,0,.92-.18l.61-.25Z" class="cls-1"/><path d="M126.24,135.73a5.52,5.52,0,0,1-2.28-.44,5.25,5.25,0,0,1-1.75-1.2,5.46,5.46,0,0,1-1.54-3.84,5.61,5.61,0,0,1,.7-2.79,5.25,5.25,0,0,1,2-2,5.58,5.58,0,0,1,2.91-.75,5.37,5.37,0,0,1,5.5,5.43,3.39,3.39,0,0,1,0,.46,2.45,2.45,0,0,1,0,.34h-8.63a3.81,3.81,0,0,0,.56,1.65,3.22,3.22,0,0,0,1.17,1.09,3,3,0,0,0,1.52.4,3.55,3.55,0,0,0,1.74-.45,2.33,2.33,0,0,0,1.09-1.2l1.94.56a4.19,4.19,0,0,1-1.07,1.41,5.58,5.58,0,0,1-1.68,1A5.82,5.82,0,0,1,126.24,135.73ZM123,129.45h6.49a3.41,3.41,0,0,0-.52-1.62,3.26,3.26,0,0,0-2.72-1.47,3.08,3.08,0,0,0-1.57.4,3.22,3.22,0,0,0-1.68,2.69Z" class="cls-1"/><path d="M139.61,126.73a4.78,4.78,0,0,0-2.31.6,3.22,3.22,0,0,0-1.45,1.62v6.58h-2.26V124.86h2.08v2.3a5.08,5.08,0,0,1,1.48-1.75,3.46,3.46,0,0,1,1.89-.73h.36l.21,0Z" class="cls-1"/><path d="M150.92,135.53h-2.24v-5.95a3.78,3.78,0,0,0-.5-2.19,1.67,1.67,0,0,0-1.44-.68,2.74,2.74,0,0,0-1.3.34,4.21,4.21,0,0,0-1.15.87,3.44,3.44,0,0,0-.75,1.28v6.33h-2.26V124.86h2.05V127a4.17,4.17,0,0,1,1.07-1.22,5.14,5.14,0,0,1,1.5-.8,5.55,5.55,0,0,1,1.79-.28,3.33,3.33,0,0,1,1.6.34,2.45,2.45,0,0,1,1,.95,4.18,4.18,0,0,1,.49,1.38,8.91,8.91,0,0,1,.15,1.66Z" class="cls-1"/><path d="M158.42,135.73a5.52,5.52,0,0,1-2.28-.44,5.25,5.25,0,0,1-1.75-1.2,5.46,5.46,0,0,1-1.54-3.84,5.61,5.61,0,0,1,.7-2.79,5.25,5.25,0,0,1,2-2,5.58,5.58,0,0,1,2.91-.75,5.39,5.39,0,0,1,5.51,5.43,3.33,3.33,0,0,1,0,.46,2.45,2.45,0,0,1,0,.34h-8.63a3.81,3.81,0,0,0,.56,1.65,3.22,3.22,0,0,0,1.17,1.09,3.06,3.06,0,0,0,1.52.4,3.49,3.49,0,0,0,1.73-.45,2.35,2.35,0,0,0,1.1-1.2l1.94.56a4.19,4.19,0,0,1-1.07,1.41,5.58,5.58,0,0,1-1.68,1A5.82,5.82,0,0,1,158.42,135.73Zm-3.23-6.28h6.49a3.41,3.41,0,0,0-.52-1.62,3.22,3.22,0,0,0-1.16-1.07,3.28,3.28,0,0,0-3.14,0,3.27,3.27,0,0,0-1.15,1.07A3.21,3.21,0,0,0,155.19,129.45Z" class="cls-1"/><path d="M171.65,135a7.23,7.23,0,0,1-.72.3,6.63,6.63,0,0,1-1,.3,5.1,5.1,0,0,1-1.11.12,3.27,3.27,0,0,1-1.3-.25,2.11,2.11,0,0,1-.95-.79,2.33,2.33,0,0,1-.37-1.37v-6.71h-1.43v-1.75h1.43v-3.53h2.26v3.53h2.35v1.75h-2.35v6a1.1,1.1,0,0,0,.37.82,1.17,1.17,0,0,0,.79.27,2.38,2.38,0,0,0,.91-.18l.61-.25Z" class="cls-1"/></svg>